<svg width="189" height="189" viewBox="0 0 189 189" fill="none" xmlns="http://www.w3.org/2000/svg">
<g id="Cat Hand Drawn" opacity="0.5" clip-path="url(#clip0_132_475)">
<path id="Vector" fill-rule="evenodd" clip-rule="evenodd" d="M24.5927 39.4821C31.9542 43.7743 43.6118 51.1358 48.5201 57.885C49.1325 59.1116 50.9714 57.885 49.7448 56.6565C42.3833 45.6152 36.2502 41.9334 25.2069 37.6412C23.9784 37.027 23.3661 38.8679 24.5927 39.4821Z" fill="#DEDEDE"/>
<path id="Vector_2" fill-rule="evenodd" clip-rule="evenodd" d="M93.3017 48.6807C94.5283 45.0009 100.663 30.2778 104.957 24.7571C105.57 23.5286 104.343 22.9163 103.729 23.5286C96.3673 30.8921 93.3017 38.2517 91.4609 48.0684C91.4609 49.295 93.3017 49.9092 93.3017 48.6807Z" fill="#DEDEDE"/>
<path id="Vector_3" fill-rule="evenodd" clip-rule="evenodd" d="M98.8224 49.2931C105.57 37.0251 125.814 11.2587 131.336 24.141C134.404 32.1168 130.108 46.8399 130.722 56.6546C130.722 60.9487 136.857 63.4019 136.857 76.2861C136.857 77.5127 138.698 77.5127 138.698 76.2861C138.698 62.1753 133.175 60.3345 133.175 56.6546C132.563 46.8399 136.857 37.6375 135.63 27.8227C134.402 16.7794 127.042 15.5528 119.679 20.4611C111.09 26.5961 103.117 39.4783 98.2082 48.6788C96.3692 49.2931 98.2082 50.5197 98.8224 49.2931Z" fill="#DEDEDE"/>
<path id="Vector_4" fill-rule="evenodd" clip-rule="evenodd" d="M42.9975 65.2428C62.627 49.9073 98.2081 43.7724 119.679 61.563C120.907 62.1772 121.519 60.9487 120.907 60.3345C98.2081 40.0926 64.4679 44.999 41.7709 64.0162C41.1566 64.6304 42.3832 65.8552 42.9975 65.2428Z" fill="#DEDEDE"/>
<path id="Vector_5" fill-rule="evenodd" clip-rule="evenodd" d="M125.199 23.5305C114.158 28.4369 110.476 41.3192 108.637 53.5891C108.637 54.8157 110.478 55.4299 110.478 54.2014C112.931 45.0009 117.84 30.8902 125.814 25.3695C127.042 24.7552 126.428 22.9181 125.199 23.5305Z" fill="#DEDEDE"/>
<path id="Vector_6" fill-rule="evenodd" clip-rule="evenodd" d="M122.132 41.3211C119.679 43.16 119.679 43.16 118.452 46.8399C117.84 48.0684 119.066 48.6826 119.68 48.0684C122.746 46.2275 122.746 45.6152 123.36 42.5477C123.973 41.3192 122.746 40.0945 122.132 41.3211Z" fill="#DEDEDE"/>
<path id="Vector_7" fill-rule="evenodd" clip-rule="evenodd" d="M124.587 49.295C122.134 49.295 122.746 49.295 120.907 51.1358C119.679 51.7501 120.907 53.5891 121.519 52.9767C123.973 52.9767 123.973 52.9767 125.199 51.1358C126.428 50.5216 125.199 48.6826 124.587 49.295Z" fill="#DEDEDE"/>
<path id="Vector_8" fill-rule="evenodd" clip-rule="evenodd" d="M126.428 57.2708C125.199 56.0423 124.587 56.6565 123.36 57.2708C122.132 57.2708 122.132 59.1098 123.36 59.1098C125.201 60.3383 125.201 59.724 126.428 59.1098C127.654 59.1098 127.654 57.2708 126.428 57.2708Z" fill="#DEDEDE"/>
<path id="Vector_9" fill-rule="evenodd" clip-rule="evenodd" d="M16.0045 36.4109C5.57736 38.2517 -0.557584 43.1582 0.669026 57.2689C0.669026 59.1098 3.7365 79.3535 6.80397 86.1027C8.03058 89.1683 14.1655 97.7584 16.0045 95.3033C17.233 93.4643 12.9389 93.4643 9.25718 84.8742C7.41633 79.3554 6.80397 73.8328 5.57736 67.6979C3.12225 51.7482 -0.557585 41.9334 16.0045 38.2536C17.8453 38.2536 17.233 36.4109 16.0045 36.4109Z" fill="#DEDEDE"/>
<path id="Vector_10" fill-rule="evenodd" clip-rule="evenodd" d="M21.5271 87.9417C11.0981 103.279 7.41636 121.684 14.1655 138.86C6.18975 147.448 1.89567 157.877 0.0548096 168.921C0.0548096 169.533 0.0548096 170.147 0.66906 170.147C2.50992 170.76 1.28142 165.853 7.41636 153.583C13.5513 141.313 18.4596 141.313 17.233 138.86C14.1655 130.884 12.937 122.296 14.1655 113.708C16.6188 94.0785 24.5927 89.7845 22.7537 87.9436C22.1395 87.3293 21.5271 87.3274 21.5271 87.9417Z" fill="#DEDEDE"/>
<path id="Vector_11" fill-rule="evenodd" clip-rule="evenodd" d="M138.083 76.9003C149.739 86.717 149.125 92.2377 150.351 98.985C151.58 105.12 152.806 112.481 152.806 118.616C152.806 119.845 155.872 121.684 161.395 128.431C166.913 136.407 165.689 138.86 167.528 139.474C178.571 144.381 185.933 156.651 187.159 167.692C187.159 168.921 189 168.921 189 167.692C188.386 154.81 180.412 142.542 169.983 137.019C167.528 129.044 162.621 122.91 157.101 117.39C157.101 110.642 155.26 104.508 154.033 97.7584C152.192 89.1702 152.192 84.8761 139.922 74.4471C138.083 74.4471 136.855 76.288 138.083 76.9003Z" fill="#DEDEDE"/>
<path id="Vector_12" fill-rule="evenodd" clip-rule="evenodd" d="M57.1063 103.893C53.4265 106.347 44.2241 110.641 39.3157 113.708C34.4093 116.161 29.501 119.843 24.5926 122.296C16.6187 126.592 8.64292 129.658 0.66901 133.339C-0.55949 133.952 0.0547597 135.793 1.28137 135.178C18.4596 127.817 22.7518 129.658 58.3329 105.732C58.9472 105.12 58.3329 103.279 57.1063 103.893Z" fill="#DEDEDE"/>
<path id="Vector_13" fill-rule="evenodd" clip-rule="evenodd" d="M44.226 120.455C35.6359 125.978 36.8625 124.751 25.8212 133.952C24.5927 134.566 25.8212 136.407 27.0478 135.18C36.8625 129.045 36.8625 129.658 45.4507 121.684C46.065 121.07 44.8402 119.843 44.226 120.455Z" fill="#DEDEDE"/>
<path id="Vector_14" fill-rule="evenodd" clip-rule="evenodd" d="M115.384 98.3707C138.698 102.665 167.53 111.253 185.933 125.976C187.161 126.59 187.773 125.362 187.161 124.748C165.691 105.732 143.604 100.212 115.384 96.5299C114.158 95.9156 114.158 97.7584 115.384 98.3707Z" fill="#DEDEDE"/>
<path id="Vector_15" fill-rule="evenodd" clip-rule="evenodd" d="M126.428 110.641C128.269 111.869 133.175 114.322 135.63 116.163C137.469 117.392 147.286 122.298 149.739 123.525C150.968 124.137 151.58 122.296 150.968 121.684C144.831 117.39 139.924 113.708 133.175 111.255C127.656 108.802 126.428 108.802 125.814 109.414C125.814 110.028 125.814 110.641 126.428 110.641Z" fill="#DEDEDE"/>
<path id="Vector_16" fill-rule="evenodd" clip-rule="evenodd" d="M41.769 93.4624C36.2502 102.051 41.1566 108.185 39.93 113.706C39.3177 114.935 41.1585 115.547 41.7709 114.32C44.2241 108.8 41.1566 101.438 43.6117 94.0766C43.6117 93.4624 42.3813 92.2358 41.769 93.4624Z" fill="#DEDEDE"/>
<path id="Vector_17" fill-rule="evenodd" clip-rule="evenodd" d="M8.03064 167.08C20.9129 165.241 25.8212 148.677 25.8212 148.063C27.6602 145.609 33.1809 144.995 35.636 136.407C36.2483 135.18 34.4075 134.566 33.7951 135.795C30.7276 143.77 25.8193 142.542 23.3661 146.222C22.1395 148.063 21.5271 149.903 20.9129 151.744C18.4597 156.651 12.9371 163.4 7.41828 165.239C6.18978 165.239 6.80403 167.08 8.03064 167.08Z" fill="#DEDEDE"/>
<path id="Vector_18" fill-rule="evenodd" clip-rule="evenodd" d="M66.3087 51.1358C62.0147 54.2033 59.5614 56.0423 57.1063 62.1772C56.4921 63.4057 57.7206 64.0181 58.9472 63.4057C62.627 58.4974 60.788 62.1772 68.1477 52.9767C68.1477 51.7482 66.9211 50.5216 66.3087 51.1358Z" fill="#DEDEDE"/>
<path id="Vector_19" fill-rule="evenodd" clip-rule="evenodd" d="M58.9472 54.2033C54.0389 42.5477 49.7448 34.5719 39.3158 25.9856C38.7034 25.3714 37.4768 26.598 38.0892 27.2122C47.9059 37.6394 56.494 56.0442 58.333 55.4299C58.9472 55.4299 58.9472 54.8176 58.9472 54.2033Z" fill="#DEDEDE"/>
<path id="Vector_20" fill-rule="evenodd" clip-rule="evenodd" d="M86.5526 50.5235C87.1668 51.752 87.7811 53.591 89.0058 55.4318C90.8466 57.885 92.0733 59.7259 93.2999 62.1791C93.9141 63.4076 95.755 62.7934 95.1407 61.5649C93.2999 55.4318 92.0733 53.5891 88.3934 49.9092C87.1649 48.6826 85.9402 49.2969 86.5526 50.5235Z" fill="#DEDEDE"/>
<path id="Vector_21" fill-rule="evenodd" clip-rule="evenodd" d="M111.705 80.582C114.158 83.6495 118.452 85.4904 120.293 88.5578C122.746 93.4643 122.134 101.44 123.973 106.961C128.269 119.231 138.696 127.205 151.58 130.886C155.874 138.862 162.007 145.609 171.209 143.769C172.438 143.769 171.824 141.928 171.209 141.928C163.234 143.156 157.715 136.407 154.645 129.045C154.033 127.817 146.672 127.205 138.083 120.457C125.814 110.641 126.428 99.5992 125.201 93.4643C122.746 83.0353 117.84 84.2638 114.158 79.9697C112.317 78.7412 111.09 79.3554 111.705 80.582Z" fill="#DEDEDE"/>
<path id="Vector_22" fill-rule="evenodd" clip-rule="evenodd" d="M75.5112 84.8742C75.5112 86.7151 79.8053 89.7826 81.6461 92.2377C82.2585 92.85 82.8727 92.85 82.8727 92.85C84.0994 92.85 84.0994 91.6215 85.326 89.1702C87.1668 85.4885 87.7792 84.8742 87.1668 83.6476C86.5526 83.0353 86.5526 82.421 86.5526 81.8087C87.1668 80.5802 87.7811 83.6476 89.62 83.0353C91.4609 82.421 92.6875 81.1944 93.9141 80.5802C96.3692 78.7412 89.62 75.0614 86.5526 74.4471C85.326 73.8329 84.7117 75.6737 85.9402 76.2861C87.7792 76.9003 89.62 78.1269 90.8467 79.3535C89.62 79.9678 90.2343 79.9678 89.0077 79.9678C86.5526 76.2861 81.0319 79.9678 83.4851 84.2619C82.2585 86.7151 82.2585 86.1027 81.6461 87.9417L77.9644 84.2619C78.5787 81.1944 75.5112 79.3535 73.058 81.8087L71.8295 83.0353C70.6029 82.421 74.2846 75.0595 81.0319 75.0595C82.2604 75.0595 82.2604 73.2186 81.0319 73.2186C70.6029 72.6062 63.8556 85.4885 72.4437 86.1027C74.2846 86.1027 74.2846 86.1027 75.5112 84.8742Z" fill="#DEDEDE"/>
<path id="Vector_23" fill-rule="evenodd" clip-rule="evenodd" d="M85.3259 99.5992C85.3259 95.3051 85.3259 95.3051 82.8708 89.7845C82.8708 88.556 81.0319 89.1702 81.0319 90.3987C81.6442 97.146 81.6442 95.9175 83.4851 100.213C84.0993 101.442 85.9383 100.826 85.3259 99.5992Z" fill="#DEDEDE"/>
<path id="Vector_24" fill-rule="evenodd" clip-rule="evenodd" d="M62.0147 129.658C68.762 134.566 73.0561 119.229 81.0319 106.959C84.7117 101.44 85.326 100.826 89.62 104.506C100.663 113.094 104.343 125.364 109.864 119.843L111.092 118.615C111.705 117.388 109.864 116.776 109.251 118.002C105.57 122.296 104.343 115.549 96.9816 107.573C92.0733 102.052 85.9402 95.9175 81.03 101.438C76.1236 106.347 68.1496 125.978 65.6945 127.817C63.2413 129.658 62.6271 127.205 61.4005 128.431C61.4005 129.045 62.0147 129.658 62.0147 129.658Z" fill="#DEDEDE"/>
<path id="Vector_25" fill-rule="evenodd" clip-rule="evenodd" d="M93.9141 72.6062C95.755 64.6304 101.276 59.724 109.866 60.9506C112.931 61.5649 113.546 62.7915 114.158 61.5649C116.613 58.4974 93.916 51.1358 92.0732 71.9939C92.0732 73.8329 93.9141 73.8328 93.9141 72.6062Z" fill="#DEDEDE"/>
<path id="Vector_26" fill-rule="evenodd" clip-rule="evenodd" d="M41.769 75.6737C45.4507 71.3796 50.9733 70.153 55.2674 71.9939C63.2432 75.0595 62.6289 80.582 64.4679 79.9697C66.3088 78.7412 61.4004 72.6062 59.5615 71.3796C48.5182 61.5649 38.0911 74.4471 39.93 75.6737C40.5443 76.288 41.1567 75.6737 41.769 75.6737Z" fill="#DEDEDE"/>
<path id="Vector_27" fill-rule="evenodd" clip-rule="evenodd" d="M49.1325 73.2186C41.1567 75.6737 35.0217 89.1702 49.1325 89.7826C61.4004 90.3968 67.5354 77.5127 63.8556 77.5127C63.2413 77.5127 62.6271 78.1269 62.6271 78.1269C62.0147 86.7151 41.1566 89.7826 43.6099 81.8068C46.065 73.831 50.9714 75.0595 49.7448 73.2186H49.1325Z" fill="#DEDEDE"/>
<path id="Vector_28" fill-rule="evenodd" clip-rule="evenodd" d="M47.9039 87.3274C46.6773 86.1008 47.2916 83.0334 48.5182 81.8068C50.9714 79.3535 55.8797 79.3535 57.1063 83.0353C58.3348 86.7151 48.5182 89.7826 46.6773 86.7151L47.9039 87.3274Z" fill="#DEDEDE"/>
<path id="Vector_29" fill-rule="evenodd" clip-rule="evenodd" d="M92.0732 73.2186C95.1407 78.1269 103.117 80.582 109.864 78.1269C112.931 76.9003 119.066 72.6081 117.225 71.3796C115.385 70.1511 115.999 73.8328 108.637 75.6737C103.729 76.9022 96.3673 75.6737 93.3017 72.6062C93.3017 71.3796 91.4609 71.992 92.0732 73.2186Z" fill="#DEDEDE"/>
<path id="Vector_30" fill-rule="evenodd" clip-rule="evenodd" d="M101.276 63.4038C106.796 62.1772 112.319 64.0181 115.384 68.9245C115.999 70.153 117.84 68.9245 117.225 68.3122C114.158 61.5649 108.025 58.4974 100.663 62.1772C99.4348 62.1772 100.049 64.0162 101.276 63.4038Z" fill="#DEDEDE"/>
<path id="Vector_31" fill-rule="evenodd" clip-rule="evenodd" d="M110.478 76.288C112.931 71.9939 104.343 68.3122 100.661 73.2205C98.8224 75.6737 99.4348 77.5146 102.502 78.1288C109.25 78.7412 112.931 73.8347 110.478 76.288Z" fill="#DEDEDE"/>
<path id="Vector_32" fill-rule="evenodd" clip-rule="evenodd" d="M90.2343 106.347C83.487 104.506 78.5786 109.414 74.2827 114.935C73.6703 115.549 74.8969 116.776 75.5112 116.163C78.5786 113.094 81.6442 110.641 85.9402 109.414C92.6875 108.185 96.3692 113.094 97.5958 111.867C99.4348 110.641 92.6875 106.961 90.2343 106.347Z" fill="#DEDEDE"/>
<path id="Vector_33" fill-rule="evenodd" clip-rule="evenodd" d="M16.0045 46.2294C27.662 45.6151 27.0478 66.4732 39.9319 67.6998C41.1566 67.6998 41.1566 65.8589 39.9319 65.8589C29.501 64.02 30.7276 41.3211 15.3921 44.3885C14.7779 44.3885 14.7779 46.2294 16.0045 46.2294Z" fill="#DEDEDE"/>
<path id="Vector_34" fill-rule="evenodd" clip-rule="evenodd" d="M18.4596 60.3383C20.9129 62.1772 20.3005 62.1772 25.2069 62.7915C26.4354 63.4057 27.0478 61.5649 25.8212 60.9506C22.1395 58.4974 22.1395 58.4974 19.0739 58.4974C17.8454 57.8831 17.233 59.7259 18.4596 60.3383Z" fill="#DEDEDE"/>
<path id="Vector_35" fill-rule="evenodd" clip-rule="evenodd" d="M16.0045 69.5407C20.2986 70.7673 19.6862 70.153 23.9803 69.5407C25.2069 69.5407 25.2069 67.6998 23.9803 67.6998C19.072 66.4732 18.4596 67.0874 16.0045 67.6998C14.7779 67.6998 14.7779 69.5407 16.0045 69.5407Z" fill="#DEDEDE"/>
<path id="Vector_36" fill-rule="evenodd" clip-rule="evenodd" d="M20.2986 80.582C25.8212 78.1269 25.2069 78.1269 28.2744 75.0595C29.5029 74.4471 28.2744 72.6062 27.6602 73.2205C22.1414 75.0595 21.5271 76.288 19.6844 78.7393C17.8454 79.3535 19.072 81.1963 20.2986 80.582Z" fill="#DEDEDE"/>
</g>
<defs>
<clipPath id="clip0_132_475">
<rect width="189" height="189" fill="white"/>
</clipPath>
</defs>
</svg>
