<svg width="159" height="159" viewBox="0 0 159 159" fill="none" xmlns="http://www.w3.org/2000/svg">
<g id="Pop Cat Hand Drawn" opacity="0.5" clip-path="url(#clip0_132_595)">
<path id="Vector" fill-rule="evenodd" clip-rule="evenodd" d="M100.032 27.7026C104.813 21.4873 116.288 11.925 119.158 10.0122C126.806 4.75253 130.631 7.14389 133.023 14.3148C134.457 18.6189 137.804 56.391 137.804 60.6935C138.281 73.6043 143.542 88.3738 137.327 96.9805C133.501 102.239 136.848 99.4211 145.932 142.931C145.932 143.408 145.932 143.887 145.455 143.887C144.019 144.364 144.215 143.913 139.435 126.222C135.131 110.923 133.023 101.812 132.544 99.8997C132.067 97.5084 136.848 96.0742 137.325 86.0349C137.325 82.688 133.023 18.1403 129.677 11.925C128.72 10.0122 127.763 9.53366 125.85 10.0122C123.46 10.4892 120.113 12.402 118.202 14.3148C100.032 28.6582 102.423 31.5281 100.032 30.5709C98.5975 30.0939 88.5566 25.3128 77.5602 23.877C64.1724 21.4873 61.7826 25.3112 60.8255 23.4C57.0015 12.402 51.2632 4.27394 48.8734 1.88417C47.4376 2.83976 45.5265 5.23112 44.5693 6.6653C40.2668 12.402 40.7454 13.3592 39.7882 12.8822C39.3112 12.8822 39.3112 12.402 39.3112 11.925C40.2652 10.0122 42.6565 6.18671 45.0479 3.31835C48.3948 -0.984193 49.3504 -0.507193 50.7846 1.40558C55.0887 7.14389 58.9127 11.4464 62.2596 21.4873C73.7347 18.6189 88.5582 22.9199 100.032 27.7026Z" fill="#DEDEDE"/>
<path id="Vector_2" fill-rule="evenodd" clip-rule="evenodd" d="M40.2667 12.879C37.3984 17.6617 36.9198 23.8771 36.9198 29.6138C36.9198 31.048 33.0942 30.571 25.9233 39.176C15.8825 51.6082 13.4911 67.3858 18.2723 82.2078C24.4892 101.332 36.4412 107.549 35.4856 109.939C32.6172 120.935 31.1831 130.498 28.3147 142.451C28.3147 143.408 26.8789 142.93 26.8789 141.974C29.2703 131.455 30.7045 120.458 33.0958 109.939C2.01611 81.2522 10.6228 40.6102 35.007 29.1352C35.007 22.9199 35.9642 17.1832 38.8326 12.402C39.7882 10.9678 40.7453 11.925 40.2667 12.879Z" fill="#DEDEDE"/>
<path id="Vector_3" fill-rule="evenodd" clip-rule="evenodd" d="M50.3076 42.523C99.5547 36.7863 125.852 97.0298 73.7347 105.636C67.9979 106.592 61.7826 107.071 56.0443 105.636C44.5693 102.766 33.0943 93.2042 26.879 83.1634C15.4039 65.9516 25.9234 47.7827 45.5265 43.4802C47.4933 43.0477 47.9703 45.1131 45.5265 45.703C31.6617 49.0499 21.5095 60.544 25.8137 74.889C29.159 85.4069 43.1351 99.4195 57.0015 102.766C73.2577 106.592 100.307 98.3447 97.917 76.8288C96.0042 59.1385 77.4696 42.046 50.694 44.9143C47.8829 45.2164 48.0625 42.7837 50.3076 42.523Z" fill="#DEDEDE"/>
<path id="Vector_4" fill-rule="evenodd" clip-rule="evenodd" d="M75.1688 46.8271C59.3913 45.8715 39.3096 54.9551 31.6601 64.5174C24.9662 73.1241 28.3131 77.4282 26.4004 77.9052C25.9234 77.9052 25.4448 77.4282 25.4448 77.4282C23.532 58.3021 52.2204 43.0015 75.1688 45.3929C76.126 45.3929 76.126 46.8271 75.1688 46.8271Z" fill="#DEDEDE"/>
<path id="Vector_5" fill-rule="evenodd" clip-rule="evenodd" d="M35.8481 32.2007C47.0083 29.2528 48.6158 32.1625 41.0411 33.8861C31.5408 35.9785 31.8604 32.6983 37.1328 31.9542L35.8481 32.2007Z" fill="#DEDEDE"/>
<path id="Vector_6" fill-rule="evenodd" clip-rule="evenodd" d="M46.7667 30.1035C47.6778 30.4644 47.5712 31.5583 47.3311 32.409C44.307 35.9404 29.8809 36.8339 33.2787 32.6952C34.5364 31.1115 43.9031 28.7758 46.7667 30.1035ZM42.9411 32.18C37.6941 34.2597 31.7539 33.7923 37.5351 32.6825C38.1759 32.5584 40.103 32.188 42.9411 32.18ZM44.5995 31.323C45.1083 30.9573 44.466 31.0797 44.5995 31.323V31.323Z" fill="#DEDEDE"/>
<path id="Vector_7" fill-rule="evenodd" clip-rule="evenodd" d="M91.0911 37.1217C105.49 39.6339 105.35 46.5902 98.7549 45.7713C91.6842 44.3244 84.2446 36.6845 91.0911 37.1217Z" fill="#DEDEDE"/>
<path id="Vector_8" fill-rule="evenodd" clip-rule="evenodd" d="M90.8685 36.1121C96.734 36.6845 106.22 39.8788 103.919 44.706C100.862 50.6797 84.6405 41.4847 87.6694 36.9023C88.175 36.1391 90.3915 35.4841 90.8685 36.1121ZM90.1101 37.2569C90.5871 37.885 92.5523 37.6131 97.1538 40.0951C98.615 40.588 102.488 42.8235 101.002 43.725C98.5053 46.1514 84.4703 37.6926 90.1101 37.2569Z" fill="#DEDEDE"/>
<path id="Vector_9" fill-rule="evenodd" clip-rule="evenodd" d="M120.113 14.7934C130.154 8.57647 129.199 27.7026 128.72 39.1776C128.72 42.046 128.243 46.3485 125.852 47.7843C121.069 50.6526 113.898 41.0904 110.073 36.7863C107.683 33.9179 104.336 32.4837 108.16 26.2684C110.551 22.4429 113.898 20.0515 117.724 17.6617C118.678 17.1847 119.158 18.6173 118.679 19.0959C115.332 21.4873 111.985 23.877 110.073 27.224C107.204 32.0051 109.596 32.4837 111.985 35.3521C114.377 38.2204 122.026 47.3057 124.896 45.8715C126.329 44.9143 126.329 41.0904 126.329 39.6546C126.807 29.1368 129.197 11.925 121.069 16.7061C120.115 16.7061 119.156 15.2704 120.113 14.7934Z" fill="#DEDEDE"/>
<path id="Vector_10" fill-rule="evenodd" clip-rule="evenodd" d="M57.9571 40.1316C59.3913 39.6546 66.0852 37.2648 66.5638 38.699C66.5638 39.6546 66.0852 39.6546 63.2168 41.0888C61.7826 42.0459 60.3485 42.523 58.4357 42.523C56.0443 43.0015 54.6102 38.699 55.5658 35.8291C55.5658 34.8735 57.0015 35.3521 57.0015 35.8291C56.5229 37.7418 57.4785 39.1744 57.9571 40.1316Z" fill="#DEDEDE"/>
<path id="Vector_11" fill-rule="evenodd" clip-rule="evenodd" d="M65.1296 22.9214C63.2168 23.4 61.304 24.3572 58.9127 24.8342C55.0887 25.7914 51.7418 26.2684 49.3504 26.747C48.3948 27.224 47.9162 25.7914 48.8734 25.3128C57.0015 21.9658 59.3913 21.9658 65.1296 21.4873C66.0852 21.0103 66.0852 22.4444 65.1296 22.9214Z" fill="#DEDEDE"/>
</g>
<defs>
<clipPath id="clip0_132_595">
<rect width="159" height="159" fill="white" transform="matrix(-1 0 0 1 159 0)"/>
</clipPath>
</defs>
</svg>
